<svg width="24" height="24" viewBox="0 0 24 24" fill="none" xmlns="http://www.w3.org/2000/svg">
<path fill-rule="evenodd" clip-rule="evenodd" d="M7.548 21.5997C16.6044 21.5997 21.558 14.212 21.558 7.80619C21.558 7.59589 21.558 7.38718 21.5436 7.17924C22.5072 6.49399 23.3388 5.64318 24 4.66967C23.1024 5.06191 22.1484 5.31915 21.1728 5.43256C22.2 4.82648 22.9692 3.87428 23.3376 2.75072C22.3704 3.31546 21.3132 3.71402 20.2104 3.92787C18.3456 1.97611 15.2268 1.88155 13.2432 3.71752C11.9652 4.90133 11.4216 6.66638 11.8188 8.34994C7.86 8.15383 4.1712 6.31316 1.6704 3.2851C0.3636 5.50031 1.032 8.33314 3.1956 9.75561C2.412 9.73316 1.6452 9.52544 0.96 9.14975V9.21127C0.9612 11.5187 2.6136 13.5054 4.9104 13.9626C4.1856 14.1576 3.4248 14.1858 2.688 14.0453C3.3324 16.0206 5.1816 17.3737 7.2876 17.4126C5.544 18.7619 3.39 19.4945 1.1724 19.4921C0.7812 19.4909 0.39 19.4685 0 19.4224C2.2524 20.8449 4.872 21.5998 7.548 21.5962" fill="#495057"/>
</svg>
