<svg width="24" height="24" viewBox="0 0 24 24" fill="none" xmlns="http://www.w3.org/2000/svg">
<g clip-path="url(#clip0_10_11)">
<path fill-rule="evenodd" clip-rule="evenodd" d="M9.58613 15.1033V8.36917C11.9768 9.49408 13.8283 10.5808 16.0181 11.7524C14.212 12.754 11.9768 13.8779 9.58613 15.1033ZM22.9092 5.01995C22.4968 4.47663 21.794 4.05371 21.0457 3.9137C18.8463 3.49604 5.12518 3.49485 2.92698 3.9137C2.32693 4.02618 1.7926 4.29808 1.3336 4.72053C-0.600435 6.51561 0.00559941 16.1421 0.471777 17.7014C0.667809 18.3763 0.921228 18.8631 1.24038 19.1826C1.65157 19.6051 2.21456 19.896 2.86123 20.0264C4.67214 20.401 14.0016 20.6104 21.0074 20.0826C21.6529 19.9702 22.2243 19.6699 22.6749 19.2295C24.4631 17.4416 24.3412 7.27457 22.9092 5.01995Z" fill="#495057"/>
</g>
<defs>
<clipPath id="clip0_10_11">
<rect width="24" height="24" fill="white"/>
</clipPath>
</defs>
</svg>
